<svg width="16" height="16" viewBox="0 0 16 16" fill="none" xmlns="http://www.w3.org/2000/svg">
<g id="u:bag-alt">
<g id="Vector">
<mask id="path-1-inside-1_3569_1167" fill="white">
<path d="M3.33335 4.33317H5.33335V3.6665C5.33335 3.13607 5.54407 2.62736 5.91914 2.25229C6.29421 1.87722 6.80292 1.6665 7.33335 1.6665L8.66669 1.6665C9.19712 1.6665 9.70583 1.87722 10.0809 2.25229C10.456 2.62736 10.6667 3.13607 10.6667 3.6665V4.33317H12.6667C13.1971 4.33317 13.7058 4.54388 14.0809 4.91896C14.456 5.29403 14.6667 5.80274 14.6667 6.33317L14.6667 12.3332C14.6667 12.8636 14.456 13.3723 14.0809 13.7474C13.7058 14.1225 13.1971 14.3332 12.6667 14.3332L3.33335 14.3332C2.80292 14.3332 2.29421 14.1225 1.91914 13.7474C1.54407 13.3723 1.33335 12.8636 1.33335 12.3332L1.33335 6.33317C1.33335 5.80274 1.54407 5.29403 1.91914 4.91896C2.29421 4.54388 2.80292 4.33317 3.33335 4.33317ZM9.33335 3.6665C9.33335 3.48969 9.26312 3.32012 9.13809 3.1951C9.01307 3.07008 8.8435 2.99984 8.66669 2.99984H7.33335C7.15654 2.99984 6.98697 3.07008 6.86195 3.1951C6.73692 3.32012 6.66669 3.48969 6.66669 3.6665V4.33317L9.33335 4.33317V3.6665ZM2.66669 12.3332C2.66669 12.51 2.73692 12.6796 2.86195 12.8046C2.98697 12.9296 3.15654 12.9998 3.33335 12.9998L12.6667 12.9998C12.8435 12.9998 13.0131 12.9296 13.1381 12.8046C13.2631 12.6796 13.3334 12.51 13.3334 12.3332V8.6665C11.6358 9.33993 9.82623 9.68602 8.00002 9.6865C6.17387 9.68538 4.36437 9.33931 2.66669 8.6665V12.3332ZM2.66669 7.2065C4.34776 7.94502 6.16388 8.32636 8.00002 8.32636C9.83616 8.32636 11.6523 7.94502 13.3334 7.2065V6.33317C13.3334 6.15636 13.2631 5.98679 13.1381 5.86177C13.0131 5.73674 12.8435 5.6665 12.6667 5.6665L3.33335 5.6665C3.15654 5.6665 2.98697 5.73674 2.86195 5.86177C2.73692 5.98679 2.66669 6.15636 2.66669 6.33317L2.66669 7.2065Z"/>
</mask>
<path d="M3.33335 4.33317H5.33335V3.6665C5.33335 3.13607 5.54407 2.62736 5.91914 2.25229C6.29421 1.87722 6.80292 1.6665 7.33335 1.6665L8.66669 1.6665C9.19712 1.6665 9.70583 1.87722 10.0809 2.25229C10.456 2.62736 10.6667 3.13607 10.6667 3.6665V4.33317H12.6667C13.1971 4.33317 13.7058 4.54388 14.0809 4.91896C14.456 5.29403 14.6667 5.80274 14.6667 6.33317L14.6667 12.3332C14.6667 12.8636 14.456 13.3723 14.0809 13.7474C13.7058 14.1225 13.1971 14.3332 12.6667 14.3332L3.33335 14.3332C2.80292 14.3332 2.29421 14.1225 1.91914 13.7474C1.54407 13.3723 1.33335 12.8636 1.33335 12.3332L1.33335 6.33317C1.33335 5.80274 1.54407 5.29403 1.91914 4.91896C2.29421 4.54388 2.80292 4.33317 3.33335 4.33317ZM9.33335 3.6665C9.33335 3.48969 9.26312 3.32012 9.13809 3.1951C9.01307 3.07008 8.8435 2.99984 8.66669 2.99984H7.33335C7.15654 2.99984 6.98697 3.07008 6.86195 3.1951C6.73692 3.32012 6.66669 3.48969 6.66669 3.6665V4.33317L9.33335 4.33317V3.6665ZM2.66669 12.3332C2.66669 12.51 2.73692 12.6796 2.86195 12.8046C2.98697 12.9296 3.15654 12.9998 3.33335 12.9998L12.6667 12.9998C12.8435 12.9998 13.0131 12.9296 13.1381 12.8046C13.2631 12.6796 13.3334 12.51 13.3334 12.3332V8.6665C11.6358 9.33993 9.82623 9.68602 8.00002 9.6865C6.17387 9.68538 4.36437 9.33931 2.66669 8.6665V12.3332ZM2.66669 7.2065C4.34776 7.94502 6.16388 8.32636 8.00002 8.32636C9.83616 8.32636 11.6523 7.94502 13.3334 7.2065V6.33317C13.3334 6.15636 13.2631 5.98679 13.1381 5.86177C13.0131 5.73674 12.8435 5.6665 12.6667 5.6665L3.33335 5.6665C3.15654 5.6665 2.98697 5.73674 2.86195 5.86177C2.73692 5.98679 2.66669 6.15636 2.66669 6.33317L2.66669 7.2065Z" fill="black"/>
<path d="M5.33335 4.33317H6.73335L6.73335 5.73317L5.33335 5.73317V4.33317ZM8.66669 1.6665V0.266504V1.6665ZM10.6667 4.33317V5.73317H9.26669V4.33317L10.6667 4.33317ZM14.6667 6.33317H16.0667H14.6667ZM14.6667 12.3332H16.0667H14.6667ZM12.6667 14.3332V15.7332V14.3332ZM3.33335 14.3332V15.7332V14.3332ZM1.33335 12.3332H-0.0666466H1.33335ZM1.33335 6.33317L-0.0666466 6.33317L1.33335 6.33317ZM8.66669 2.99984V4.39984V2.99984ZM6.66669 4.33317L6.66669 5.73317L5.26669 5.73317V4.33317H6.66669ZM9.33335 4.33317L10.7334 4.33317V5.73317H9.33335V4.33317ZM13.3334 8.6665L12.8171 7.36517L14.7334 6.60496L14.7334 8.6665H13.3334ZM8.00002 9.6865L8.00039 11.0865L7.99916 11.0865L8.00002 9.6865ZM2.66669 8.6665H1.26669L1.26669 6.60573L3.18249 7.36499L2.66669 8.6665ZM2.66669 7.2065L2.10359 8.48827L1.26669 8.12061V7.2065H2.66669ZM13.3334 7.2065H14.7334L14.7334 8.12061L13.8965 8.48827L13.3334 7.2065ZM3.33335 2.93317H5.33335V5.73317H3.33335V2.93317ZM3.93335 4.33317V3.6665L6.73335 3.6665V4.33317H3.93335ZM3.93335 3.6665C3.93335 2.76477 4.29157 1.89996 4.92919 1.26234L6.90909 3.24224C6.79657 3.35476 6.73335 3.50737 6.73335 3.6665L3.93335 3.6665ZM4.92919 1.26234C5.56681 0.624717 6.43162 0.266504 7.33335 0.266504V3.0665C7.17422 3.0665 7.02161 3.12972 6.90909 3.24224L4.92919 1.26234ZM7.33335 0.266504L8.66669 0.266504V3.0665H7.33335V0.266504ZM8.66669 0.266504C9.56842 0.266504 10.4332 0.624717 11.0709 1.26234L9.09095 3.24224C8.97843 3.12972 8.82582 3.0665 8.66669 3.0665V0.266504ZM11.0709 1.26234C11.7085 1.89996 12.0667 2.76477 12.0667 3.6665L9.26669 3.6665C9.26669 3.50737 9.20347 3.35476 9.09095 3.24224L11.0709 1.26234ZM12.0667 3.6665V4.33317L9.26669 4.33317V3.6665L12.0667 3.6665ZM10.6667 2.93317L12.6667 2.93317V5.73317L10.6667 5.73317V2.93317ZM12.6667 2.93317C13.5684 2.93317 14.4332 3.29138 15.0708 3.92901L13.091 5.90891C12.9784 5.79638 12.8258 5.73317 12.6667 5.73317V2.93317ZM15.0708 3.92901C15.7085 4.56663 16.0667 5.43143 16.0667 6.33317H13.2667C13.2667 6.17404 13.2035 6.02143 13.091 5.90891L15.0708 3.92901ZM16.0667 6.33317V12.3332H13.2667L13.2667 6.33317H16.0667ZM16.0667 12.3332C16.0667 13.2349 15.7085 14.0997 15.0708 14.7373L13.091 12.7574C13.2035 12.6449 13.2667 12.4923 13.2667 12.3332H16.0667ZM15.0708 14.7373C14.4332 15.375 13.5684 15.7332 12.6667 15.7332V12.9332C12.8258 12.9332 12.9784 12.87 13.091 12.7574L15.0708 14.7373ZM12.6667 15.7332L3.33335 15.7332V12.9332L12.6667 12.9332V15.7332ZM3.33335 15.7332C2.43162 15.7332 1.56681 15.375 0.92919 14.7373L2.90909 12.7574C3.02161 12.87 3.17422 12.9332 3.33335 12.9332V15.7332ZM0.92919 14.7373C0.291566 14.0997 -0.0666466 13.2349 -0.0666466 12.3332H2.73335C2.73335 12.4923 2.79657 12.6449 2.90909 12.7574L0.92919 14.7373ZM-0.0666466 12.3332L-0.0666466 6.33317L2.73335 6.33317L2.73335 12.3332H-0.0666466ZM-0.0666466 6.33317C-0.0666466 5.43143 0.291566 4.56663 0.92919 3.92901L2.90909 5.90891C2.79657 6.02143 2.73335 6.17404 2.73335 6.33317L-0.0666466 6.33317ZM0.92919 3.92901C1.56681 3.29138 2.43162 2.93317 3.33335 2.93317V5.73317C3.17422 5.73317 3.02161 5.79638 2.90909 5.90891L0.92919 3.92901ZM7.93335 3.6665C7.93335 3.861 8.01062 4.04752 8.14814 4.18505L10.128 2.20515C10.5156 2.59272 10.7334 3.11839 10.7334 3.6665H7.93335ZM8.14814 4.18505C8.28567 4.32257 8.47219 4.39984 8.66669 4.39984V1.59984C9.2148 1.59984 9.74047 1.81758 10.128 2.20515L8.14814 4.18505ZM8.66669 4.39984L7.33335 4.39984V1.59984L8.66669 1.59984V4.39984ZM7.33335 4.39984C7.52785 4.39984 7.71437 4.32257 7.8519 4.18505L5.872 2.20515C6.25957 1.81758 6.78524 1.59984 7.33335 1.59984V4.39984ZM7.8519 4.18505C7.98942 4.04752 8.06669 3.861 8.06669 3.6665L5.26669 3.6665C5.26669 3.11839 5.48443 2.59272 5.872 2.20515L7.8519 4.18505ZM8.06669 3.6665V4.33317L5.26669 4.33317V3.6665L8.06669 3.6665ZM6.66669 2.93317L9.33335 2.93317V5.73317H6.66669L6.66669 2.93317ZM7.93335 4.33317V3.6665H10.7334V4.33317L7.93335 4.33317ZM4.06669 12.3332C4.06669 12.1387 3.98943 11.9522 3.8519 11.8146L1.872 13.7945C1.48442 13.4069 1.26669 12.8813 1.26669 12.3332H4.06669ZM3.8519 11.8146C3.71437 11.6771 3.52784 11.5998 3.33335 11.5998V14.3998C2.78524 14.3998 2.25958 14.1821 1.872 13.7945L3.8519 11.8146ZM3.33335 11.5998L12.6667 11.5998V14.3998L3.33335 14.3998V11.5998ZM12.6667 11.5998C12.4722 11.5998 12.2857 11.6771 12.1481 11.8146L14.128 13.7945C13.7405 14.1821 13.2148 14.3998 12.6667 14.3998V11.5998ZM12.1481 11.8146C12.0106 11.9522 11.9334 12.1387 11.9334 12.3332H14.7334C14.7334 12.8813 14.5156 13.4069 14.128 13.7945L12.1481 11.8146ZM11.9334 12.3332V8.6665H14.7334V12.3332H11.9334ZM13.8496 9.96784C11.9879 10.7064 10.0032 11.086 8.00039 11.0865L7.99965 8.2865C9.64921 8.28607 11.2838 7.97346 12.8171 7.36517L13.8496 9.96784ZM7.99916 11.0865C5.99669 11.0853 4.01248 10.7058 2.15088 9.96802L3.18249 7.36499C4.71626 7.97284 6.35105 8.28549 8.00088 8.2865L7.99916 11.0865ZM4.06669 8.6665V12.3332H1.26669V8.6665H4.06669ZM3.22978 5.92474C4.73336 6.58528 6.35774 6.92636 8.00002 6.92636V9.72636C5.97002 9.72636 3.96215 9.30476 2.10359 8.48827L3.22978 5.92474ZM8.00002 6.92636C9.6423 6.92636 11.2667 6.58528 12.7703 5.92474L13.8965 8.48827C12.0379 9.30476 10.03 9.72636 8.00002 9.72636V6.92636ZM11.9334 7.2065V6.33317H14.7334V7.2065H11.9334ZM11.9334 6.33317C11.9334 6.52766 12.0106 6.71419 12.1481 6.85172L14.128 4.87182C14.5156 5.25939 14.7334 5.78506 14.7334 6.33317H11.9334ZM12.1481 6.85172C12.2857 6.98924 12.4722 7.0665 12.6667 7.0665V4.2665C13.2148 4.2665 13.7405 4.48424 14.128 4.87182L12.1481 6.85172ZM12.6667 7.0665L3.33335 7.0665V4.2665L12.6667 4.2665V7.0665ZM3.33335 7.0665C3.52785 7.0665 3.71437 6.98924 3.8519 6.85172L1.872 4.87182C2.25957 4.48424 2.78524 4.2665 3.33335 4.2665V7.0665ZM3.8519 6.85172C3.98943 6.71419 4.06669 6.52766 4.06669 6.33317H1.26669C1.26669 5.78506 1.48442 5.25939 1.872 4.87182L3.8519 6.85172ZM4.06669 6.33317L4.06669 7.2065H1.26669L1.26669 6.33317H4.06669Z" fill="#121212" mask="url(#path-1-inside-1_3569_1167)"/>
</g>
</g>
</svg>
