<svg width="16" height="17" viewBox="0 0 16 17" fill="none" xmlns="http://www.w3.org/2000/svg">
<g id="Linear / Time / Watch Round">
<path id="Vector" d="M11.3333 4.83333L11.1307 3.92151C10.9082 2.92043 10.797 2.41988 10.4314 2.12661C10.0658 1.83333 9.55301 1.83333 8.5275 1.83333H7.47242C6.44691 1.83333 5.93416 1.83333 5.56855 2.12661C5.20295 2.41988 5.09172 2.92043 4.86925 3.92151L4.66663 4.83333" stroke="#131313"/>
<path id="Vector_2" d="M11.3333 12.1667L11.1307 13.0785C10.9082 14.0796 10.797 14.5801 10.4314 14.8734C10.0658 15.1667 9.55301 15.1667 8.5275 15.1667H7.47242C6.44691 15.1667 5.93416 15.1667 5.56855 14.8734C5.20295 14.5801 5.09172 14.0796 4.86925 13.0785L4.66663 12.1667" stroke="#131313" stroke-width="1.5"/>
<path id="Vector_3" d="M13 8.5C13 11.2614 10.7614 13.5 8 13.5C5.23858 13.5 3 11.2614 3 8.5C3 5.73858 5.23858 3.5 8 3.5C10.7614 3.5 13 5.73858 13 8.5Z" stroke="#131313" stroke-width="1.5"/>
<path id="Vector_4" d="M8 6.44872V8.5L9.33333 9.78205" stroke="#131313" stroke-linecap="round" stroke-linejoin="round"/>
</g>
</svg>
