<svg width="16" height="17" viewBox="0 0 16 17" fill="none" xmlns="http://www.w3.org/2000/svg">
<path d="M1.33337 8.5C1.33337 5.98585 1.33337 4.72877 2.11442 3.94772C2.89547 3.16667 4.15255 3.16667 6.66671 3.16667H9.33337C11.8475 3.16667 13.1046 3.16667 13.8857 3.94772C14.6667 4.72877 14.6667 5.98585 14.6667 8.50001V9.83334C14.6667 12.3475 14.6667 13.6046 13.8857 14.3856C13.1046 15.1667 11.8475 15.1667 9.33337 15.1667H6.66671C4.15255 15.1667 2.89547 15.1667 2.11442 14.3856C1.33337 13.6046 1.33337 12.3475 1.33337 9.83334V8.5Z" stroke="#131313"/>
<path d="M4.66663 3.16667V2.16667" stroke="#131313" stroke-width="1.5" stroke-linecap="round"/>
<path d="M11.3334 3.16667V2.16667" stroke="#131313" stroke-width="1.5" stroke-linecap="round"/>
<circle cx="11" cy="11.5" r="1" stroke="#131313"/>
<path d="M1.66663 6.5H14.3333" stroke="#131313" stroke-linecap="round"/>
</svg>
