<svg width="13" height="13" viewBox="0 0 13 13" fill="none" xmlns="http://www.w3.org/2000/svg">
<path d="M3.99992 1.83333C3.99992 1.46514 3.70144 1.16666 3.33325 1.16666H1.99992C1.63173 1.16666 1.33325 1.46514 1.33325 1.83333V11.1667C1.33325 11.5348 1.63173 11.8333 1.99992 11.8333H3.33325C3.70144 11.8333 3.99992 11.5348 3.99992 11.1667M3.99992 1.83333V11.1667M3.99992 1.83333C3.99992 1.46514 4.2984 1.16666 4.66659 1.16666H5.99992C6.36811 1.16666 6.66659 1.46514 6.66659 1.83333V11.1667C6.66659 11.5348 6.36811 11.8333 5.99992 11.8333H4.66659C4.2984 11.8333 3.99992 11.5348 3.99992 11.1667M1.33325 3.83333H3.99992M3.99992 9.16666H6.66659M7.33325 4.49999L9.99992 3.83333M8.66659 9.16666L11.2819 8.51333M7.20192 1.53999L8.65792 1.18666C9.03259 1.09666 9.41325 1.31333 9.51258 1.67466L11.9759 10.62C12.0194 10.7838 12.0001 10.9579 11.922 11.1082C11.8438 11.2585 11.7123 11.3742 11.5533 11.4327L11.4646 11.46L10.0086 11.8133C9.63392 11.9033 9.25325 11.6867 9.15392 11.3253L6.69059 2.37999C6.64713 2.21623 6.66637 2.04213 6.74455 1.89181C6.82274 1.7415 6.95422 1.62578 7.11325 1.56733L7.20192 1.53999Z" stroke="#131313" stroke-width="1.4" stroke-linecap="round" stroke-linejoin="round"/>
</svg>
