<svg width="16" height="16" viewBox="0 0 16 16" fill="none" xmlns="http://www.w3.org/2000/svg">
<g id="edit">
<path id="Vector" d="M4.66675 4.66668H4.00008C3.64646 4.66668 3.30732 4.80715 3.05727 5.0572C2.80722 5.30725 2.66675 5.64639 2.66675 6.00001L2.66675 12C2.66675 12.3536 2.80722 12.6928 3.05727 12.9428C3.30732 13.1929 3.64646 13.3333 4.00008 13.3333L10.0001 13.3333C10.3537 13.3333 10.6928 13.1929 10.9429 12.9428C11.1929 12.6928 11.3334 12.3536 11.3334 12V11.3333M10.6667 3.33334L12.6667 5.33334M13.5901 4.39001C13.8526 4.12745 14.0002 3.77133 14.0002 3.40001C14.0002 3.02869 13.8526 2.67257 13.5901 2.41001C13.3275 2.14745 12.9714 1.99994 12.6001 1.99994C12.2288 1.99994 11.8726 2.14745 11.6101 2.41001L6.00008 8.00001L6.00008 10H8.00008L13.5901 4.39001Z" stroke="#BBBFCC" stroke-width="1.4" stroke-linecap="round" stroke-linejoin="round"/>
</g>
</svg>
