<svg width="16" height="16" viewBox="0 0 16 16" fill="none" xmlns="http://www.w3.org/2000/svg">
<g id="Property 1=edit-circle">
<path id="Vector" d="M10.6667 3.33341L12.6667 5.33341M6.00001 4.71338C4.83404 4.88423 3.77583 5.48975 3.03776 6.40842C2.2997 7.32708 1.9364 8.4909 2.02078 9.6663C2.10516 10.8417 2.63097 11.9417 3.49269 12.7455C4.35441 13.5493 5.48826 13.9975 6.66668 14C7.78876 13.9999 8.87326 13.5956 9.72158 12.8611C10.5699 12.1267 11.1253 11.1112 11.286 10.0007M8.00001 10.0001L13.59 4.39007C13.8526 4.12751 14.0001 3.77139 14.0001 3.40007C14.0001 3.02875 13.8526 2.67264 13.59 2.41007C13.3274 2.14751 12.9713 2 12.6 2C12.2287 2 11.8726 2.14751 11.61 2.41007L6.00001 8.00007L6.00001 10.0001L8.00001 10.0001Z" stroke="#3A82C4" stroke-width="1.4" stroke-linecap="round" stroke-linejoin="round"/>
</g>
</svg>
