<svg width="24" height="24" viewBox="0 0 24 24" fill="none" xmlns="http://www.w3.org/2000/svg">
<g id="Property 1=edit-circle">
<path id="Vector" d="M16 5L19 8M9.00001 7.06995C7.25106 7.32623 5.66374 8.23451 4.55665 9.6125C3.44955 10.9905 2.9046 12.7362 3.03117 14.4993C3.15774 16.2624 3.94646 17.9124 5.23903 19.1181C6.53161 20.3239 8.23238 20.9961 10 20.9999C11.6831 20.9998 13.3099 20.3933 14.5824 19.2916C15.8549 18.1899 16.6879 16.6667 16.929 15.0009M12 15L20.385 6.58499C20.7789 6.19114 21.0001 5.65697 21.0001 5.09998C21.0001 4.543 20.7789 4.00883 20.385 3.61498C19.9912 3.22114 19.457 2.99988 18.9 2.99988C18.343 2.99988 17.8089 3.22114 17.415 3.61498L9.00002 12V15H12Z" stroke="#6900FF" stroke-width="2" stroke-linecap="round" stroke-linejoin="round"/>
</g>
</svg>
