<svg width="10" height="18" viewBox="0 0 10 18" fill="none" xmlns="http://www.w3.org/2000/svg">
<path fill-rule="evenodd" clip-rule="evenodd" d="M3.73967 2.15667C4.56004 1.33616 5.67274 0.875137 6.83301 0.875H9.08301C9.24877 0.875 9.40774 0.940848 9.52495 1.05806C9.64216 1.17527 9.70801 1.33424 9.70801 1.5V4.5C9.70801 4.66576 9.64216 4.82473 9.52495 4.94194C9.40774 5.05915 9.24877 5.125 9.08301 5.125H6.83301C6.81659 5.125 6.80034 5.12823 6.78517 5.13452C6.77001 5.1408 6.75623 5.15 6.74462 5.16161C6.73301 5.17322 6.72381 5.187 6.71752 5.20216C6.71124 5.21733 6.70801 5.23358 6.70801 5.25V6.875H9.08301C9.17802 6.87495 9.2718 6.89656 9.35721 6.93819C9.44262 6.97983 9.51741 7.04038 9.5759 7.11526C9.63439 7.19014 9.67504 7.27737 9.69475 7.37032C9.71447 7.46327 9.71273 7.55949 9.68968 7.65167L8.93968 10.6517C8.90584 10.7869 8.82775 10.907 8.71782 10.9928C8.60789 11.0785 8.47244 11.1251 8.33301 11.125H6.70801V16.5C6.70801 16.6658 6.64216 16.8247 6.52495 16.9419C6.40774 17.0592 6.24877 17.125 6.08301 17.125H3.08301C2.91725 17.125 2.75828 17.0592 2.64107 16.9419C2.52386 16.8247 2.45801 16.6658 2.45801 16.5V11.125H0.833008C0.667248 11.125 0.508276 11.0592 0.391066 10.9419C0.273856 10.8247 0.208008 10.6658 0.208008 10.5V7.5C0.208008 7.41792 0.224174 7.33665 0.255583 7.26082C0.286992 7.18499 0.333029 7.1161 0.391066 7.05806C0.449103 7.00002 0.518002 6.95398 0.593831 6.92258C0.669659 6.89117 0.750932 6.875 0.833008 6.875H2.45801V5.25C2.45815 4.08973 2.91917 2.97703 3.73967 2.15667ZM6.83301 2.125C6.00421 2.125 5.20935 2.45424 4.6233 3.04029C4.03725 3.62634 3.70801 4.4212 3.70801 5.25V7.5C3.70801 7.66576 3.64216 7.82473 3.52495 7.94194C3.40774 8.05915 3.24877 8.125 3.08301 8.125H1.45801V9.875H3.08301C3.24877 9.875 3.40774 9.94085 3.52495 10.0581C3.64216 10.1753 3.70801 10.3342 3.70801 10.5V15.875H5.45801V10.5C5.45801 10.3342 5.52386 10.1753 5.64107 10.0581C5.75828 9.94085 5.91725 9.875 6.08301 9.875H7.84467L8.28218 8.125H6.08301C5.91725 8.125 5.75828 8.05915 5.64107 7.94194C5.52386 7.82473 5.45801 7.66576 5.45801 7.5V5.25C5.45801 4.88533 5.60287 4.53559 5.86074 4.27773C6.1186 4.01987 6.46834 3.875 6.83301 3.875H8.45801V2.125H6.83301Z" fill="#131313"/>
</svg>
