<svg width="24" height="24" viewBox="0 0 24 24" fill="none" xmlns="http://www.w3.org/2000/svg">
<g id="Icons/photo">
<path id="Vector" d="M15 8H15.01M4 15L8 11C8.45606 10.5611 8.97339 10.3301 9.5 10.3301C10.0266 10.3301 10.5439 10.5611 11 11L16 16M14 14L15 13C15.4561 12.5611 15.9734 12.3301 16.5 12.3301C17.0266 12.3301 17.5439 12.5611 18 13L20 15M7 4L17 4C18.6569 4 20 5.34315 20 7V17C20 18.6569 18.6569 20 17 20L7 20C5.34315 20 4 18.6569 4 17L4 7C4 5.34315 5.34315 4 7 4Z" stroke="#A6A5AD" stroke-width="1.4" stroke-linecap="round" stroke-linejoin="round"/>
</g>
</svg>
