<svg width="18" height="18" viewBox="0 0 18 18" fill="none" xmlns="http://www.w3.org/2000/svg">
<path d="M5.50033 0.667969H12.5003C15.167 0.667969 17.3337 2.83464 17.3337 5.5013V12.5013C17.3337 13.7832 16.8244 15.0126 15.918 15.919C15.0116 16.8254 13.7822 17.3346 12.5003 17.3346H5.50033C2.83366 17.3346 0.666992 15.168 0.666992 12.5013V5.5013C0.666992 4.21942 1.17622 2.99005 2.08264 2.08362C2.98907 1.17719 4.21845 0.667969 5.50033 0.667969ZM5.33366 2.33464C4.53801 2.33464 3.77495 2.65071 3.21234 3.21332C2.64973 3.77592 2.33366 4.53899 2.33366 5.33464V12.668C2.33366 14.3263 3.67533 15.668 5.33366 15.668H12.667C13.4626 15.668 14.2257 15.3519 14.7883 14.7893C15.3509 14.2267 15.667 13.4636 15.667 12.668V5.33464C15.667 3.6763 14.3253 2.33464 12.667 2.33464H5.33366ZM13.3753 3.58464C13.6516 3.58464 13.9165 3.69438 14.1119 3.88973C14.3072 4.08508 14.417 4.35003 14.417 4.6263C14.417 4.90257 14.3072 5.16752 14.1119 5.36287C13.9165 5.55822 13.6516 5.66797 13.3753 5.66797C13.0991 5.66797 12.8341 5.55822 12.6388 5.36287C12.4434 5.16752 12.3337 4.90257 12.3337 4.6263C12.3337 4.35003 12.4434 4.08508 12.6388 3.88973C12.8341 3.69438 13.0991 3.58464 13.3753 3.58464ZM9.00033 4.83464C10.1054 4.83464 11.1652 5.27362 11.9466 6.05502C12.728 6.83643 13.167 7.89623 13.167 9.0013C13.167 10.1064 12.728 11.1662 11.9466 11.9476C11.1652 12.729 10.1054 13.168 9.00033 13.168C7.89526 13.168 6.83545 12.729 6.05405 11.9476C5.27265 11.1662 4.83366 10.1064 4.83366 9.0013C4.83366 7.89623 5.27265 6.83643 6.05405 6.05502C6.83545 5.27362 7.89526 4.83464 9.00033 4.83464ZM9.00033 6.5013C8.33728 6.5013 7.7014 6.76469 7.23256 7.23353C6.76372 7.70238 6.50033 8.33826 6.50033 9.0013C6.50033 9.66434 6.76372 10.3002 7.23256 10.7691C7.7014 11.2379 8.33728 11.5013 9.00033 11.5013C9.66337 11.5013 10.2993 11.2379 10.7681 10.7691C11.2369 10.3002 11.5003 9.66434 11.5003 9.0013C11.5003 8.33826 11.2369 7.70238 10.7681 7.23353C10.2993 6.76469 9.66337 6.5013 9.00033 6.5013Z" fill="#131313"/>
</svg>
