<svg width="16" height="17" viewBox="0 0 16 17" fill="none" xmlns="http://www.w3.org/2000/svg">
<g id="Property 1=login">
<path id="Vector" d="M9.33333 5.83332V4.49999C9.33333 4.14637 9.19286 3.80723 8.94281 3.55718C8.69276 3.30713 8.35362 3.16666 8 3.16666L3.33333 3.16666C2.97971 3.16666 2.64057 3.30713 2.39052 3.55718C2.14048 3.80723 2 4.14637 2 4.49999L2 12.5C2 12.8536 2.14048 13.1927 2.39052 13.4428C2.64057 13.6928 2.97971 13.8333 3.33333 13.8333L8 13.8333C8.35362 13.8333 8.69276 13.6928 8.94281 13.4428C9.19286 13.1927 9.33333 12.8536 9.33333 12.5L9.33333 11.1667M13.3333 8.49999L4.66667 8.49999M4.66667 8.49999L6.66667 6.49999M4.66667 8.49999L6.66667 10.5" stroke="#121212" stroke-width="1.4" stroke-linecap="round" stroke-linejoin="round"/>
</g>
</svg>
