<svg width="6" height="10" viewBox="0 0 6 10" fill="none" xmlns="http://www.w3.org/2000/svg">
<mask id="path-1-inside-1_1543_605" fill="white">
<path d="M2.40834 5.00001L5.35834 2.05001C5.51355 1.89387 5.60066 1.68266 5.60066 1.46251C5.60066 1.24235 5.51355 1.03114 5.35834 0.875008C5.28087 0.796901 5.1887 0.734906 5.08715 0.692598C4.9856 0.650291 4.87668 0.62851 4.76667 0.62851C4.65666 0.62851 4.54774 0.650291 4.44619 0.692598C4.34464 0.734906 4.25247 0.796901 4.175 0.875008L0.641671 4.40834C0.563564 4.48581 0.501569 4.57798 0.459261 4.67953C0.416954 4.78108 0.395172 4.89 0.395172 5.00001C0.395172 5.11002 0.416954 5.21894 0.459261 5.32049C0.501569 5.42204 0.563564 5.5142 0.641671 5.59167L4.175 9.16667C4.25287 9.24391 4.34522 9.30501 4.44675 9.34648C4.54828 9.38795 4.657 9.40898 4.76667 9.40834C4.87634 9.40898 4.98506 9.38795 5.08659 9.34648C5.18812 9.30501 5.28047 9.24391 5.35834 9.16667C5.51355 9.01054 5.60066 8.79933 5.60066 8.57917C5.60066 8.35902 5.51355 8.14781 5.35834 7.99167L2.40834 5.00001Z"/>
</mask>
<path d="M2.40834 5.00001L5.35834 2.05001C5.51355 1.89387 5.60066 1.68266 5.60066 1.46251C5.60066 1.24235 5.51355 1.03114 5.35834 0.875008C5.28087 0.796901 5.1887 0.734906 5.08715 0.692598C4.9856 0.650291 4.87668 0.62851 4.76667 0.62851C4.65666 0.62851 4.54774 0.650291 4.44619 0.692598C4.34464 0.734906 4.25247 0.796901 4.175 0.875008L0.641671 4.40834C0.563564 4.48581 0.501569 4.57798 0.459261 4.67953C0.416954 4.78108 0.395172 4.89 0.395172 5.00001C0.395172 5.11002 0.416954 5.21894 0.459261 5.32049C0.501569 5.42204 0.563564 5.5142 0.641671 5.59167L4.175 9.16667C4.25287 9.24391 4.34522 9.30501 4.44675 9.34648C4.54828 9.38795 4.657 9.40898 4.76667 9.40834C4.87634 9.40898 4.98506 9.38795 5.08659 9.34648C5.18812 9.30501 5.28047 9.24391 5.35834 9.16667C5.51355 9.01054 5.60066 8.79933 5.60066 8.57917C5.60066 8.35902 5.51355 8.14781 5.35834 7.99167L2.40834 5.00001Z" fill="#131313"/>
<path d="M2.40834 5.00001L0.994124 3.58579L-0.410207 4.99012L0.984241 6.40427L2.40834 5.00001ZM5.35834 2.05001L6.77256 3.46423L6.77675 3.46001L5.35834 2.05001ZM5.35834 0.875008L3.93834 2.28341L3.93992 2.28501L5.35834 0.875008ZM4.175 0.875008L5.58923 2.28923L5.595 2.28341L4.175 0.875008ZM0.641671 4.40834L2.05009 5.82835L2.05588 5.82255L0.641671 4.40834ZM0.641671 5.59167L2.06415 4.18577L2.05715 4.17869L2.05007 4.17167L0.641671 5.59167ZM4.175 9.16667L2.75253 10.5726L2.75951 10.5796L2.76657 10.5866L4.175 9.16667ZM4.44675 9.34648L5.203 7.49497L4.44675 9.34648ZM4.76667 9.40834L4.77823 7.40837L4.76667 7.40831L4.75511 7.40837L4.76667 9.40834ZM5.35834 9.16667L6.76681 10.5867L6.77675 10.5767L5.35834 9.16667ZM5.60066 8.57917H7.60066H5.60066ZM5.35834 7.99167L3.93423 9.39595L3.93992 9.40167L5.35834 7.99167ZM3.82255 6.41422L6.77255 3.46422L3.94412 0.635794L0.994124 3.58579L3.82255 6.41422ZM6.77675 3.46001C7.30446 2.92915 7.60066 2.21103 7.60066 1.46251H3.60066C3.60066 1.15429 3.72263 0.858598 3.93992 0.640008L6.77675 3.46001ZM7.60066 1.46251C7.60066 0.713983 7.30446 -0.00413096 6.77675 -0.534992L3.93992 2.28501C3.72263 2.06642 3.60066 1.77072 3.60066 1.46251H7.60066ZM6.77834 -0.533395C6.51494 -0.798957 6.20157 -1.00974 5.8563 -1.15359L4.318 2.53878C4.17583 2.47955 4.04679 2.39276 3.93834 2.28341L6.77834 -0.533395ZM5.8563 -1.15359C5.51103 -1.29743 5.1407 -1.37149 4.76667 -1.37149V2.62851C4.61266 2.62851 4.46017 2.59802 4.318 2.53878L5.8563 -1.15359ZM4.76667 -1.37149C4.39264 -1.37149 4.02231 -1.29743 3.67704 -1.15359L5.21534 2.53878C5.07317 2.59802 4.92068 2.62851 4.76667 2.62851V-1.37149ZM3.67704 -1.15359C3.33177 -1.00974 3.0184 -0.798957 2.755 -0.533395L5.595 2.28341C5.48655 2.39276 5.35751 2.47955 5.21534 2.53878L3.67704 -1.15359ZM2.76079 -0.539206L-0.772543 2.99413L2.05588 5.82255L5.58922 2.28922L2.76079 -0.539206ZM-0.766733 2.98834C-1.0323 3.25174 -1.24308 3.56511 -1.38692 3.91037L2.30545 5.44868C2.24622 5.59085 2.15942 5.71988 2.05007 5.82834L-0.766733 2.98834ZM-1.38692 3.91037C-1.53077 4.25564 -1.60483 4.62597 -1.60483 5.00001H2.39517C2.39517 5.15402 2.36468 5.30651 2.30545 5.44868L-1.38692 3.91037ZM-1.60483 5.00001C-1.60483 5.37404 -1.53077 5.74438 -1.38692 6.08964L2.30545 4.55133C2.36468 4.6935 2.39517 4.84599 2.39517 5.00001H-1.60483ZM-1.38692 6.08964C-1.24308 6.43491 -1.0323 6.74828 -0.766733 7.01167L2.05007 4.17167C2.15942 4.28013 2.24622 4.40917 2.30545 4.55133L-1.38692 6.08964ZM-0.780808 6.99757L2.75253 10.5726L5.59748 7.76077L2.06415 4.18577L-0.780808 6.99757ZM2.76657 10.5866C3.03132 10.8492 3.3453 11.057 3.6905 11.198L5.203 7.49497C5.34514 7.55303 5.47442 7.63858 5.58344 7.74671L2.76657 10.5866ZM3.6905 11.198C4.03569 11.339 4.40533 11.4105 4.77823 11.4083L4.75511 7.40837C4.90866 7.40749 5.06087 7.43692 5.203 7.49497L3.6905 11.198ZM4.75511 11.4083C5.12801 11.4105 5.49765 11.339 5.84284 11.198L4.33034 7.49497C4.47247 7.43692 4.62468 7.40749 4.77823 7.40837L4.75511 11.4083ZM5.84284 11.198C6.18804 11.057 6.50202 10.8492 6.76677 10.5866L3.9499 7.74671C4.05892 7.63858 4.1882 7.55303 4.33034 7.49497L5.84284 11.198ZM6.77675 10.5767C7.30446 10.0458 7.60066 9.3277 7.60066 8.57917H3.60066C3.60066 8.27096 3.72263 7.97526 3.93992 7.75667L6.77675 10.5767ZM7.60066 8.57917C7.60066 7.83065 7.30446 7.11253 6.77675 6.58167L3.93992 9.40167C3.72263 9.18308 3.60066 8.88739 3.60066 8.57917H7.60066ZM6.78243 6.58741L3.83243 3.59575L0.984241 6.40427L3.93424 9.39594L6.78243 6.58741Z" fill="#131313" mask="url(#path-1-inside-1_1543_605)"/>
</svg>
