<svg width="21" height="19" viewBox="0 0 21 19" fill="none" xmlns="http://www.w3.org/2000/svg">
<path id="Vector" d="M18.4998 10.572L10.9998 18L3.49981 10.572C3.00512 10.0906 2.61546 9.51201 2.35536 8.87263C2.09527 8.23325 1.97037 7.54694 1.98855 6.85693C2.00673 6.16691 2.16758 5.48813 2.46097 4.86333C2.75436 4.23853 3.17395 3.68125 3.6933 3.22657C4.21265 2.7719 4.82052 2.42968 5.47862 2.22147C6.13673 2.01327 6.83082 1.94358 7.51718 2.0168C8.20354 2.09001 8.86731 2.30455 9.46669 2.6469C10.0661 2.98925 10.5881 3.45199 10.9998 4.00599C11.4133 3.45602 11.9359 2.99731 12.5349 2.6586C13.1339 2.31988 13.7963 2.10844 14.4807 2.03751C15.1652 1.96658 15.8569 2.03769 16.5126 2.24639C17.1683 2.45508 17.7738 2.79687 18.2914 3.25036C18.8089 3.70385 19.2272 4.25928 19.5202 4.88189C19.8132 5.50449 19.9746 6.18088 19.9941 6.8687C20.0137 7.55653 19.8911 8.24099 19.6339 8.87924C19.3768 9.5175 18.9907 10.0958 18.4998 10.578" stroke="#6900FF" stroke-width="2" stroke-linecap="round" stroke-linejoin="round"/>
</svg>
