<svg width="16" height="17" viewBox="0 0 16 17" fill="none" xmlns="http://www.w3.org/2000/svg">
<g id="map-pin">
<g id="Vector">
<path d="M8.00008 9.83334C9.10465 9.83334 10.0001 8.93791 10.0001 7.83334C10.0001 6.72877 9.10465 5.83334 8.00008 5.83334C6.89551 5.83334 6.00008 6.72877 6.00008 7.83334C6.00008 8.93791 6.89551 9.83334 8.00008 9.83334Z" stroke="#131313" stroke-width="1.4" stroke-linecap="round" stroke-linejoin="round"/>
<path d="M11.7714 11.6046L8.94275 14.4333C8.69274 14.6831 8.35381 14.8234 8.00042 14.8234C7.64703 14.8234 7.30809 14.6831 7.05808 14.4333L4.22875 11.6046C3.4829 10.8587 2.97497 9.90844 2.76921 8.87388C2.56344 7.83932 2.66908 6.76698 3.07275 5.79246C3.47643 4.81794 4.16002 3.985 5.03707 3.39898C5.91413 2.81296 6.94526 2.50017 8.00008 2.50017C9.05491 2.50017 10.086 2.81296 10.9631 3.39898C11.8402 3.985 12.5237 4.81794 12.9274 5.79246C13.3311 6.76698 13.4367 7.83932 13.231 8.87388C13.0252 9.90844 12.5173 10.8587 11.7714 11.6046Z" stroke="#131313" stroke-width="1.4" stroke-linecap="round" stroke-linejoin="round"/>
</g>
</g>
</svg>
