<svg width="16" height="17" viewBox="0 0 16 17" fill="none" xmlns="http://www.w3.org/2000/svg">
<path d="M4 5.90497C4 3.65627 5.79086 1.83333 8 1.83333C10.2091 1.83333 12 3.65627 12 5.90497C12 8.13606 10.7233 10.7395 8.73147 11.6706C8.26713 11.8876 7.73287 11.8876 7.26853 11.6706C5.27666 10.7395 4 8.13606 4 5.90497Z" stroke="#131313"/>
<path d="M9.33329 5.83333C9.33329 6.56971 8.73634 7.16667 7.99996 7.16667C7.26358 7.16667 6.66663 6.56971 6.66663 5.83333C6.66663 5.09695 7.26358 4.5 7.99996 4.5C8.73634 4.5 9.33329 5.09695 9.33329 5.83333Z" stroke="#131313" stroke-width="1.5"/>
<path d="M8.00004 14.2917L8.32929 14.668C8.4378 14.573 8.50004 14.4358 8.50004 14.2917C8.50004 14.1475 8.4378 14.0103 8.32929 13.9154L8.00004 14.2917ZM14.2842 10.1081C14.0678 9.93661 13.7533 9.97305 13.5818 10.1895C13.4103 10.4059 13.4468 10.7204 13.6632 10.8919L14.2842 10.1081ZM2.33686 10.8919C2.5533 10.7204 2.58974 10.4059 2.41825 10.1895C2.24676 9.97305 1.93228 9.93661 1.71584 10.1081L2.33686 10.8919ZM7.00004 13.4167L7.32929 13.0404C7.18165 12.9112 6.97209 12.8803 6.79343 12.9614C6.61478 13.0424 6.50004 13.2205 6.50004 13.4167H7.00004ZM7.00004 15.1667H6.50004C6.50004 15.3629 6.61478 15.5409 6.79343 15.622C6.97209 15.7031 7.18165 15.6721 7.32929 15.543L7.00004 15.1667ZM9.61629 13.7115C9.34156 13.7394 9.14141 13.9846 9.16926 14.2594C9.1971 14.5341 9.44239 14.7343 9.71712 14.7064L9.61629 13.7115ZM7.0296 13.7632C5.46769 13.6707 4.11507 13.3598 3.17042 12.9314C2.69726 12.7168 2.34963 12.4831 2.12714 12.2531C1.9069 12.0254 1.83337 11.8286 1.83337 11.6667H0.833374C0.833374 12.1627 1.06725 12.5956 1.40833 12.9483C1.74717 13.2986 2.2148 13.596 2.75737 13.8421C3.84417 14.335 5.32488 14.664 6.97048 14.7615L7.0296 13.7632ZM13.6632 10.8919C14.0457 11.1949 14.1667 11.462 14.1667 11.6667H15.1667C15.1667 11.0332 14.7889 10.508 14.2842 10.1081L13.6632 10.8919ZM1.83337 11.6667C1.83337 11.462 1.95442 11.1949 2.33686 10.8919L1.71584 10.1081C1.21115 10.508 0.833374 11.0332 0.833374 11.6667H1.83337ZM8.32929 13.9154L7.32929 13.0404L6.67079 13.793L7.67079 14.668L8.32929 13.9154ZM6.50004 13.4167V14.2623H7.50004V13.4167H6.50004ZM6.50004 14.2623V15.1667H7.50004V14.2623H6.50004ZM7.32929 15.543L8.32929 14.668L7.67079 13.9154L6.67079 14.7904L7.32929 15.543ZM14.1667 11.6667C14.1667 11.9711 13.8831 12.4082 13.021 12.8402C12.201 13.2511 11.0147 13.5698 9.61629 13.7115L9.71712 14.7064C11.1941 14.5567 12.5078 14.2159 13.469 13.7342C14.388 13.2737 15.1667 12.5854 15.1667 11.6667H14.1667Z" fill="#131313"/>
</svg>
