<svg width="16" height="16" viewBox="0 0 16 16" fill="none" xmlns="http://www.w3.org/2000/svg">
<g id="Property 1=logout">
<path id="Vector" d="M9.33333 5.33333V4C9.33333 3.64638 9.19286 3.30724 8.94281 3.05719C8.69276 2.80714 8.35362 2.66666 8 2.66666L3.33333 2.66666C2.97971 2.66666 2.64057 2.80714 2.39052 3.05719C2.14048 3.30724 2 3.64638 2 4L2 12C2 12.3536 2.14048 12.6928 2.39052 12.9428C2.64057 13.1929 2.97971 13.3333 3.33333 13.3333L8 13.3333C8.35362 13.3333 8.69276 13.1929 8.94281 12.9428C9.19286 12.6928 9.33333 12.3536 9.33333 12L9.33333 10.6667M4.66667 8L14 8M14 8L12 6M14 8L12 10" stroke="#121212" stroke-width="1.4" stroke-linecap="round" stroke-linejoin="round"/>
</g>
</svg>
