<svg width="24" height="24" viewBox="0 0 24 24" fill="none" xmlns="http://www.w3.org/2000/svg">
<g id="Property 1=users">
<path id="Vector" d="M21 21V19C21 17.9391 20.5786 16.9217 19.8284 16.1716C19.0783 15.4214 18.0609 15 17 15L13 15C11.9391 15 10.9217 15.4214 10.1716 16.1716C9.42143 16.9217 9 17.9391 9 19L9 21M8 3.13C7.13959 3.35031 6.37696 3.85071 5.83236 4.55232C5.28776 5.25392 4.99216 6.11683 4.99216 7.005C4.99216 7.89318 5.28776 8.75608 5.83236 9.45769C6.37696 10.1593 7.13959 10.6597 8 10.88M3 21V19C3.00508 18.1172 3.30209 17.2608 3.84473 16.5644C4.38738 15.868 5.14517 15.3707 6 15.15M11 7C11 9.20914 12.7909 11 15 11C17.2091 11 19 9.20914 19 7C19 4.79086 17.2091 3 15 3C12.7909 3 11 4.79086 11 7Z" stroke="#A6A5AD" stroke-width="1.4" stroke-linecap="round" stroke-linejoin="round"/>
</g>
</svg>
