<svg width="24" height="24" viewBox="0 0 24 24" fill="none" xmlns="http://www.w3.org/2000/svg">
<g id="u:pricetag-alt">
<path id="Vector" d="M12.2832 2.796L12.274 2.80593L12.2644 2.8155L2.79216 12.2678C2.73612 12.3287 2.70346 12.4075 2.7 12.4901C2.70054 12.5276 2.70808 12.5646 2.72224 12.5992C2.73704 12.6354 2.75878 12.6684 2.78624 12.6963C2.78648 12.6966 2.78672 12.6968 2.78697 12.697L11.2929 21.203C11.2932 21.2033 11.2934 21.2035 11.2937 21.2037C11.3216 21.2312 11.3545 21.2529 11.3908 21.2677C11.4265 21.2823 11.4646 21.2899 11.5031 21.29C11.5883 21.2881 11.6698 21.2553 11.7324 21.1977L21.2075 11.7126C21.265 11.6501 21.2979 11.5688 21.3 11.4838V5.49H21.3L21.3 5.48595C21.3002 5.44647 21.2927 5.40733 21.2777 5.37078C21.263 5.3347 21.2414 5.30183 21.2141 5.27403L18.717 2.78699C18.7169 2.78687 18.7168 2.78676 18.7167 2.78664C18.6887 2.759 18.6556 2.73713 18.6192 2.72226C18.5827 2.70733 18.5435 2.69976 18.504 2.69999L18.504 2.7H18.5L12.5014 2.7C12.4606 2.70024 12.4202 2.70883 12.3828 2.72524C12.3451 2.74175 12.3112 2.76584 12.2832 2.796ZM12.0052 20.0847L11.5099 20.5806L11.0147 20.0846L3.92466 12.9846L3.43009 12.4894L3.9253 11.9947L12.4253 3.50474L12.6303 3.3H12.92L18.1 3.3H18.3899L18.595 3.50503L20.495 5.40503L20.7 5.61005V5.9V11.09V11.3797L20.4952 11.5847L12.0052 20.0847ZM17.1667 6.75056C17.1173 6.7176 17.0593 6.7 17 6.7C16.9204 6.7 16.8441 6.73161 16.7879 6.78787C16.7316 6.84413 16.7 6.92044 16.7 7C16.7 7.05934 16.7176 7.11734 16.7505 7.16667C16.7835 7.21601 16.8304 7.25446 16.8852 7.27717C16.94 7.29987 17.0003 7.30581 17.0585 7.29424C17.1167 7.28266 17.1702 7.25409 17.2121 7.21213C17.2541 7.17018 17.2826 7.11672 17.2942 7.05853C17.3058 7.00033 17.2999 6.94001 17.2771 6.8852C17.2544 6.83038 17.216 6.78353 17.1667 6.75056Z" fill="black" stroke="#A6A5AD" stroke-width="1.4"/>
</g>
</svg>
