<svg width="16" height="16" viewBox="0 0 16 16" fill="none" xmlns="http://www.w3.org/2000/svg">
<g id="archive">
<path id="Vector" d="M12.6667 5.33333C13.403 5.33333 14 4.73638 14 4C14 3.26362 13.403 2.66667 12.6667 2.66667L3.33333 2.66667C2.59695 2.66667 2 3.26362 2 4C2 4.73638 2.59695 5.33333 3.33333 5.33333M12.6667 5.33333L3.33333 5.33333M12.6667 5.33333L12.6667 12C12.6667 12.3536 12.5262 12.6928 12.2761 12.9428C12.0261 13.1929 11.687 13.3333 11.3333 13.3333L4.66667 13.3333C4.31304 13.3333 3.97391 13.1929 3.72386 12.9428C3.47381 12.6928 3.33333 12.3536 3.33333 12L3.33333 5.33333M6.66667 8H9.33333" stroke="#121212" stroke-width="1.4" stroke-linecap="round" stroke-linejoin="round"/>
</g>
</svg>
