<svg width="16" height="16" viewBox="0 0 16 16" fill="none" xmlns="http://www.w3.org/2000/svg">
<g id="Property 1=news">
<path id="Vector" d="M10.6667 4.00001H12.6667C12.8436 4.00001 13.0131 4.07024 13.1382 4.19527C13.2632 4.32029 13.3334 4.48986 13.3334 4.66667L13.3334 12C13.3334 12.3536 13.1929 12.6928 12.9429 12.9428C12.6928 13.1929 12.3537 13.3333 12.0001 13.3333M12.0001 13.3333C11.6465 13.3333 11.3073 13.1929 11.0573 12.9428C10.8072 12.6928 10.6667 12.3536 10.6667 12L10.6667 3.33334C10.6667 3.15653 10.5965 2.98696 10.4715 2.86193C10.3465 2.73691 10.1769 2.66667 10.0001 2.66667L3.33341 2.66667C3.1566 2.66667 2.98703 2.73691 2.86201 2.86193C2.73699 2.98696 2.66675 3.15653 2.66675 3.33334L2.66675 11.3333C2.66675 11.8638 2.87746 12.3725 3.25253 12.7476C3.62761 13.1226 4.13631 13.3333 4.66675 13.3333L12.0001 13.3333ZM5.33341 5.33334L8.00008 5.33334M5.33341 8H8.00008M5.33341 10.6667H8.00008" stroke="#121212" stroke-width="1.4" stroke-linecap="round" stroke-linejoin="round"/>
</g>
</svg>
