<svg width="75" height="19" viewBox="0 0 75 19" fill="none" xmlns="http://www.w3.org/2000/svg">
<circle cx="8.625" cy="9.125" r="7.125" stroke="#282828" stroke-width="2"/>
<path d="M13.875 14.375L16.5 17" stroke="#282828" stroke-width="2" stroke-linecap="round"/>
<path opacity="0.4" d="M38.6472 15H37.2409V4.99219H31.2097V15H29.8034V3.72656H38.6472V15ZM44.3275 15.1484C41.9291 15.1484 40.4447 13.4922 40.4447 10.7969V10.7812C40.4447 8.07812 41.9291 6.42969 44.3275 6.42969C46.7259 6.42969 48.2103 8.07812 48.2103 10.7812V10.7969C48.2103 13.4922 46.7259 15.1484 44.3275 15.1484ZM44.3275 13.9453C45.9213 13.9453 46.8197 12.7812 46.8197 10.7969V10.7812C46.8197 8.78906 45.9213 7.63281 44.3275 7.63281C42.7338 7.63281 41.8353 8.78906 41.8353 10.7812V10.7969C41.8353 12.7812 42.7338 13.9453 44.3275 13.9453ZM49.8281 15V6.57812H51.1875V12.8594H51.3125L55.4766 6.57812H56.8359V15H55.4766V8.71875H55.3516L51.1875 15H49.8281ZM62.3288 15.1484C59.9694 15.1484 58.4616 13.4375 58.4616 10.7656V10.75C58.4616 8.13281 59.9616 6.42969 62.3209 6.42969C64.3678 6.42969 65.5944 7.60938 65.8444 9.10938L65.8522 9.15625H64.5006L64.4928 9.13281C64.2819 8.30469 63.5319 7.63281 62.3209 7.63281C60.8053 7.63281 59.8522 8.85156 59.8522 10.75V10.7656C59.8522 12.7031 60.8209 13.9453 62.3209 13.9453C63.4538 13.9453 64.1725 13.4453 64.485 12.5078L64.5006 12.4609L65.8444 12.4531L65.8288 12.5391C65.485 14.0625 64.3522 15.1484 62.3288 15.1484ZM69.1341 11.1641H68.7044V15H67.345V6.57812H68.7044V10.1016H69.1341L72.3919 6.57812H74.0247L70.2356 10.5469L74.1731 15H72.4309L69.1341 11.1641Z" fill="#282828"/>
</svg>
