<svg width="24" height="24" viewBox="0 0 24 24" fill="none" xmlns="http://www.w3.org/2000/svg">
<g id="Property 1=location">
<path id="Vector" d="M3.00042 3L9.50042 21C9.54429 21.0957 9.61473 21.1769 9.70337 21.2338C9.792 21.2906 9.8951 21.3209 10.0004 21.3209C10.1057 21.3209 10.2088 21.2906 10.2975 21.2338C10.3861 21.1769 10.4565 21.0957 10.5004 21L14.0004 14L21.0004 10.5C21.0962 10.4561 21.1773 10.3857 21.2342 10.2971C21.2911 10.2084 21.3213 10.1053 21.3213 10C21.3213 9.89468 21.2911 9.79158 21.2342 9.70295C21.1773 9.61431 21.0962 9.54387 21.0004 9.5L3.00042 3Z" stroke="#A6A5AD" stroke-width="1.4" stroke-linecap="round" stroke-linejoin="round"/>
</g>
</svg>
