<svg width="16" height="16" viewBox="0 0 16 16" fill="none" xmlns="http://www.w3.org/2000/svg">
<path d="M6.00002 7.99999C6.00002 8.92047 5.25383 9.66666 4.33335 9.66666C3.41288 9.66666 2.66669 8.92047 2.66669 7.99999C2.66669 7.07952 3.41288 6.33333 4.33335 6.33333C5.25383 6.33333 6.00002 7.07952 6.00002 7.99999Z" stroke="#131313" stroke-width="1.4"/>
<path d="M9.33333 4.33333L6 6.66666" stroke="#131313" stroke-width="1.4" stroke-linecap="round"/>
<path d="M9.33333 11.6667L6 9.33334" stroke="#131313" stroke-width="1.4" stroke-linecap="round"/>
<path d="M12.6666 12.3333C12.6666 13.2538 11.9205 14 11 14C10.0795 14 9.33331 13.2538 9.33331 12.3333C9.33331 11.4129 10.0795 10.6667 11 10.6667C11.9205 10.6667 12.6666 11.4129 12.6666 12.3333Z" stroke="#131313" stroke-width="1.4"/>
<path d="M12.6666 3.66667C12.6666 4.58714 11.9205 5.33333 11 5.33333C10.0795 5.33333 9.33331 4.58714 9.33331 3.66667C9.33331 2.74619 10.0795 2 11 2C11.9205 2 12.6666 2.74619 12.6666 3.66667Z" stroke="#131313" stroke-width="1.4"/>
</svg>
