<svg width="18" height="16" viewBox="0 0 18 16" fill="none" xmlns="http://www.w3.org/2000/svg">
<path d="M17.0703 0.477872C16.8969 0.330941 16.6869 0.233738 16.4627 0.196597C16.2385 0.159455 16.0084 0.183762 15.7969 0.266935L1.37498 5.931C1.12203 6.02737 0.907762 6.20423 0.765183 6.43433C0.622604 6.66443 0.559617 6.93502 0.585921 7.20444C0.609388 7.47374 0.719526 7.72819 0.899821 7.92961C1.08012 8.13103 1.32085 8.26858 1.58592 8.32162L5.24998 9.04818V13.6263C5.24985 13.874 5.3233 14.1161 5.461 14.322C5.5987 14.5278 5.79446 14.6881 6.02342 14.7826C6.17495 14.8435 6.33664 14.8753 6.49998 14.8763C6.66416 14.8769 6.8268 14.8447 6.97838 14.7817C7.12997 14.7186 7.26746 14.626 7.3828 14.5091L9.41405 12.4857L12.4844 15.1888C12.711 15.3887 13.0024 15.4997 13.3047 15.5013C13.4376 15.504 13.5699 15.4829 13.6953 15.4388C13.9015 15.3736 14.087 15.2557 14.2336 15.0967C14.3802 14.9378 14.4828 14.7433 14.5312 14.5326L17.4687 1.70443C17.5201 1.48308 17.5101 1.25192 17.4399 1.0358C17.3697 0.819687 17.2419 0.626797 17.0703 0.477872ZM5.72655 7.8685L1.83592 7.09506L12.7422 2.806L5.72655 7.8685ZM6.49998 13.6263V9.92319L8.46873 11.6576L6.49998 13.6263ZM13.3125 14.2513L6.87498 8.58725L16.1484 1.89193L13.3125 14.2513Z" fill="#131313"/>
</svg>
