<svg width="17" height="15" viewBox="0 0 17 15" fill="none" xmlns="http://www.w3.org/2000/svg">
<path d="M11.7496 2.62477C11.1163 2.62466 10.5082 2.8732 10.0562 3.31691C9.60423 3.76061 9.34452 4.36402 9.33294 4.99727L9.30961 6.30977C9.30824 6.38024 9.29199 6.44963 9.26193 6.51337C9.23186 6.57712 9.18865 6.63379 9.13515 6.67967C9.08164 6.72555 9.01903 6.75959 8.95144 6.77957C8.88385 6.79955 8.8128 6.80501 8.74294 6.7956L7.44211 6.61894C5.73044 6.3856 4.09044 5.59727 2.51711 4.28644C2.01878 7.04477 2.99211 8.9556 5.33628 10.4298L6.79211 11.3448C6.86128 11.3882 6.91875 11.448 6.95948 11.5188C7.00022 11.5896 7.02298 11.6694 7.02577 11.751C7.02857 11.8327 7.01131 11.9137 6.97552 11.9872C6.93972 12.0606 6.88648 12.1242 6.82044 12.1723L5.49378 13.1414C6.28294 13.1906 7.03211 13.1556 7.65378 13.0323C11.5854 12.2473 14.1996 9.28894 14.1996 4.40894C14.1996 4.0106 13.3563 2.62477 11.7496 2.62477ZM7.66628 4.96644C7.68082 4.16315 7.93202 3.38199 8.38841 2.72079C8.8448 2.05958 9.48611 1.5477 10.232 1.24924C10.978 0.950782 11.7954 0.879003 12.5819 1.04289C13.3684 1.20678 14.0891 1.59906 14.6538 2.1706C15.2463 2.16644 15.7504 2.31644 16.8779 1.6331C16.5988 2.99977 16.4613 3.5931 15.8663 4.40894C15.8663 10.7773 11.9521 13.8739 7.98044 14.6664C5.25711 15.2098 1.29711 14.3173 0.162109 13.1323C0.740443 13.0873 3.09044 12.8348 4.44878 11.8406C3.29961 11.0831 -1.27456 8.39144 1.73128 1.15477C3.14211 2.80227 4.57294 3.92394 6.02294 4.51894C6.98794 4.91477 7.22461 4.90644 7.66711 4.96727L7.66628 4.96644Z" fill="#131313"/>
</svg>
