<svg width="16" height="16" viewBox="0 0 16 16" fill="none" xmlns="http://www.w3.org/2000/svg">
<path d="M2.18324 10.1971C1.61662 9.46099 1.33331 9.09292 1.33331 8C1.33331 6.90709 1.61662 6.53902 2.18324 5.80289C3.31462 4.33304 5.21206 2.66667 7.99998 2.66667C10.7879 2.66667 12.6853 4.33304 13.8167 5.80289C14.3833 6.53902 14.6666 6.90709 14.6666 8C14.6666 9.09292 14.3833 9.46099 13.8167 10.1971C12.6853 11.667 10.7879 13.3333 7.99998 13.3333C5.21206 13.3333 3.31462 11.667 2.18324 10.1971Z" stroke="#131313" stroke-width="1.4"/>
<path d="M10 8C10 9.10457 9.10457 10 8 10C6.89543 10 6 9.10457 6 8C6 6.89543 6.89543 6 8 6C9.10457 6 10 6.89543 10 8Z" stroke="#131313" stroke-width="1.4"/>
</svg>
